<?xml version="1.0" standalone="no"?><!DOCTYPE svg PUBLIC "-//W3C//DTD SVG 1.1//EN" "http://www.w3.org/Graphics/SVG/1.1/DTD/svg11.dtd"><svg t="1710379572369" class="icon" viewBox="0 0 1024 1024" version="1.1" xmlns="http://www.w3.org/2000/svg" p-id="11680" xmlns:xlink="http://www.w3.org/1999/xlink" width="200" height="200"><path d="M298.688 170.688h42.688v42.688h-42.688z" p-id="11681"></path><path d="M341.312 170.688H384v42.688h-42.688z" fill="#FFF100" p-id="11682"></path><path d="M384 170.688h42.688v42.688H384zM426.688 170.688h42.688v42.688h-42.688z" fill="#E50046" p-id="11683"></path><path d="M469.312 170.688H512v42.688h-42.688z" fill="#E50046" p-id="11684"></path><path d="M298.688 213.312h42.688V256h-42.688z" p-id="11685"></path><path d="M341.312 213.312H384V256h-42.688zM384 213.312h42.688V256H384zM426.688 213.312h42.688V256h-42.688z" fill="#E50046" p-id="11686"></path><path d="M469.312 213.312H512V256h-42.688z" fill="#E50046" p-id="11687"></path><path d="M256 256h42.688v42.688H256z" p-id="11688"></path><path d="M298.688 256h42.688v42.688h-42.688z" fill="#E50046" p-id="11689"></path><path d="M341.312 256H384v42.688h-42.688zM384 256h42.688v42.688H384z" fill="#E50046" p-id="11690"></path><path d="M426.688 256h42.688v42.688h-42.688z" fill="#FFF100" p-id="11691"></path><path d="M469.312 256H512v42.688h-42.688z" fill="#FFF100" p-id="11692"></path><path d="M256 298.688h42.688v42.688H256z" p-id="11693"></path><path d="M298.688 298.688h42.688v42.688h-42.688z" fill="#E50046" p-id="11694"></path><path d="M341.312 298.688H384v42.688h-42.688zM384 298.688h42.688v42.688H384z" fill="#E50046" p-id="11695"></path><path d="M426.688 298.688h42.688v42.688h-42.688z" fill="#FFF100" p-id="11696"></path><path d="M469.312 298.688H512v42.688h-42.688z" fill="#FFF100" p-id="11697"></path><path d="M512 170.688h42.688v42.688H512z" fill="#E50046" p-id="11698"></path><path d="M512 213.312h42.688V256H512zM512 256h42.688v42.688H512zM512 298.688h42.688v42.688H512z" fill="#FFF100" p-id="11699"></path><path d="M554.688 170.688h42.688v42.688h-42.688z" fill="#E50046" p-id="11700"></path><path d="M554.688 213.312h42.688V256h-42.688zM554.688 256h42.688v42.688h-42.688z" fill="#FFF100" p-id="11701"></path><path d="M554.688 298.688h42.688v42.688h-42.688zM597.312 170.688H640v42.624h-42.688z" fill="#E50046" p-id="11702"></path><path d="M597.312 213.312H640V256h-42.688zM597.312 256H640v42.688h-42.688z" fill="#FFF100" p-id="11703"></path><path d="M597.312 298.688H640v42.688h-42.688z" fill="#E50046" p-id="11704"></path><path d="M640 213.312h42.688V256H640zM640 256h42.688v42.688H640zM682.688 213.312h42.624V256h-42.624z" fill="#FFF100" p-id="11705"></path><path d="M640 170.688h42.688v42.624H640zM682.688 170.688h42.688v42.624h-42.688z" fill="#E50046" p-id="11706"></path><path d="M725.312 170.688H768v42.624h-42.688z" fill="#E50046" p-id="11707"></path><path d="M426.688 42.688h42.688v42.688h-42.688z" p-id="11708"></path><path d="M469.312 42.688H512v42.688h-42.688zM384 85.312h42.688V128H384z" p-id="11709"></path><path d="M426.688 85.312h42.688V128h-42.688z" fill="#FFF100" p-id="11710"></path><path d="M469.312 85.312H512V128h-42.688zM512 42.688h42.688v42.688H512z" fill="#FFF100" p-id="11711"></path><path d="M512 85.312h42.688V128H512zM554.688 42.688h42.688v42.688h-42.688z" fill="#FFF100" p-id="11712"></path><path d="M554.688 85.312h42.688V128h-42.688z" fill="#FFF100" p-id="11713"></path><path d="M597.312 42.688H640v42.688h-42.688z" fill="#FFF100" p-id="11714"></path><path d="M597.312 85.312H640V128h-42.688zM640 42.688h42.688v42.688H640z" fill="#FFF100" p-id="11715"></path><path d="M640 85.312h42.688V128H640zM682.688 42.688h42.688v42.688h-42.688z" fill="#FFF100" p-id="11716"></path><path d="M682.688 85.312h42.688V128h-42.688z" fill="#FFF100" p-id="11717"></path><path d="M725.312 42.688H768v42.688h-42.688z" fill="#FFF100" p-id="11718"></path><path d="M725.312 85.312H768V128h-42.688z" fill="#FFF100" p-id="11719"></path><path d="M768 42.688h42.688v42.688H768z" p-id="11720"></path><path d="M768 85.312h42.688V128H768zM682.688 298.688h42.688v42.688h-42.688zM725.312 256H768v42.688h-42.688z" fill="#FFF100" p-id="11721"></path><path d="M725.312 298.688H768v42.688h-42.688z" fill="#FFF100" p-id="11722"></path><path d="M768 213.312h42.688V256H768zM768 256h42.688v42.688H768zM768 298.688h42.688v42.688H768z" fill="#E50046" p-id="11723"></path><path d="M810.688 170.688h42.688v42.688h-42.688z" fill="#FFF100" p-id="11724"></path><path d="M810.688 213.312h42.688V256h-42.688z" fill="#FFF100" p-id="11725"></path><path d="M810.688 256h42.688v42.688h-42.688zM810.688 298.688h42.688v42.688h-42.688z" fill="#E50046" p-id="11726"></path><path d="M853.312 213.312H896V256h-42.688zM853.312 256H896v42.688h-42.688zM853.312 298.688H896v42.688h-42.688zM896 256h42.688v42.688H896zM896 298.688h42.688v42.688H896z" fill="#FFF100" p-id="11727"></path><path d="M938.624 298.688h42.688v42.688h-42.688z" fill="#E50046" p-id="11728"></path><path d="M682.688 384h42.688v42.688h-42.688zM682.688 426.688h42.688v42.688h-42.688z" fill="#FFF100" p-id="11729"></path><path d="M682.688 469.312h42.688V512h-42.688zM725.312 384H768v42.688h-42.688z" fill="#FFF100" p-id="11730"></path><path d="M725.312 426.688H768v42.688h-42.688z" fill="#FFF100" p-id="11731"></path><path d="M725.312 469.312H768V512h-42.688zM682.688 512h42.688v42.688h-42.688z" fill="#E50046" p-id="11732"></path><path d="M725.312 512H768v42.688h-42.688zM768 384h42.688v42.688H768zM768 426.688h42.688v42.688H768z" fill="#E50046" p-id="11733"></path><path d="M768 469.312h42.688V512H768z" fill="#E50046" p-id="11734"></path><path d="M768 512h42.688v42.688H768z" fill="#FFF100" p-id="11735"></path><path d="M682.688 554.688h42.688v42.688h-42.688z" fill="#E50046" p-id="11736"></path><path d="M682.688 597.312h42.688V640h-42.688z" fill="#FFF100" p-id="11737"></path><path d="M725.312 554.688H768v42.688h-42.688z" fill="#FFF100" p-id="11738"></path><path d="M725.312 597.312H768V640h-42.688zM682.688 640h42.688v42.688h-42.688z" fill="#FFF100" p-id="11739"></path><path d="M725.312 640H768v42.688h-42.688zM768 554.688h42.688v42.688H768z" fill="#FFF100" p-id="11740"></path><path d="M768 597.312h42.688V640H768z" fill="#FFF100" p-id="11741"></path><path d="M768 640h42.688v42.688H768zM682.688 682.688h42.688v42.688h-42.688z" fill="#E50046" p-id="11742"></path><path d="M725.312 682.688H768v42.688h-42.688z" fill="#E50046" p-id="11743"></path><path d="M768 682.688h42.688v42.688H768zM682.688 725.312h42.688V768h-42.688z" p-id="11744"></path><path d="M725.312 725.312H768V768h-42.688z" p-id="11745"></path><path d="M810.688 384h42.688v42.688h-42.688zM810.688 426.688h42.688v42.688h-42.688z" fill="#E50046" p-id="11746"></path><path d="M810.688 469.312h42.688V512h-42.688zM810.688 512h42.688v42.688h-42.688zM810.688 554.688h42.688v42.688h-42.688z" fill="#FFF100" p-id="11747"></path><path d="M810.688 597.312h42.688V640h-42.688z" fill="#FFF100" p-id="11748"></path><path d="M810.688 640h42.688v42.688h-42.688z" fill="#E50046" p-id="11749"></path><path d="M810.688 682.688h42.688v42.688h-42.688z" p-id="11750"></path><path d="M853.312 384H896v42.688h-42.688zM853.312 426.688H896v42.688h-42.688z" fill="#FFF100" p-id="11751"></path><path d="M853.312 469.312H896V512h-42.688zM896 384h42.688v42.688H896zM896 426.688h42.688v42.688H896z" fill="#FFF100" p-id="11752"></path><path d="M896 469.312h42.688V512H896zM853.312 512H896v42.688h-42.688z" fill="#FFF100" p-id="11753"></path><path d="M896 512h42.688v42.688H896zM938.624 384h42.688v42.688h-42.688zM938.688 426.688h42.688v42.688h-42.688z" fill="#E50046" p-id="11754"></path><path d="M938.688 469.312h42.688V512h-42.688z" fill="#E50046" p-id="11755"></path><path d="M938.688 512h42.688v42.688h-42.688z" p-id="11756"></path><path d="M853.312 554.688H896v42.688h-42.688z" fill="#FFF100" p-id="11757"></path><path d="M853.312 597.312H896V640h-42.688zM896 554.688h42.688v42.688H896z" fill="#E50046" p-id="11758"></path><path d="M896 597.312h42.688V640H896zM853.312 640H896v42.688h-42.688zM938.688 554.688h42.688v42.688h-42.688zM256 384h42.688v42.688H256z" p-id="11759"></path><path d="M298.688 384h42.688v42.688h-42.688z" fill="#E50046" p-id="11760"></path><path d="M341.312 384H384v42.688h-42.688z" fill="#E50046" p-id="11761"></path><path d="M384 384h42.688v42.688H384zM426.688 384h42.688v42.688h-42.688z" fill="#FFF100" p-id="11762"></path><path d="M469.312 384H512v42.688h-42.688z" fill="#E50046" p-id="11763"></path><path d="M256 426.688h42.688v42.688H256z" p-id="11764"></path><path d="M298.688 426.688h42.688v42.688h-42.688z" fill="#E50046" p-id="11765"></path><path d="M341.312 426.688H384v42.688h-42.688z" fill="#E50046" p-id="11766"></path><path d="M384 426.688h42.688v42.688H384zM426.688 426.688h42.688v42.688h-42.688z" fill="#FFF100" p-id="11767"></path><path d="M469.312 426.688H512v42.688h-42.688zM298.688 469.312h42.688V512h-42.688z" fill="#E50046" p-id="11768"></path><path d="M384 469.312h42.688V512H384zM426.688 469.312h42.688V512h-42.688z" fill="#FFF100" p-id="11769"></path><path d="M512 384h42.688v42.688H512zM512 426.688h42.688v42.688H512z" fill="#E50046" p-id="11770"></path><path d="M512 469.312h42.688V512H512z" fill="#E50046" p-id="11771"></path><path d="M298.688 512h42.688v42.688h-42.688z" p-id="11772"></path><path d="M384 512h42.688v42.688H384z" fill="#E50046" p-id="11773"></path><path d="M426.688 512h42.688v42.688h-42.688z" fill="#FFF100" p-id="11774"></path><path d="M554.688 384h42.688v42.688h-42.688zM554.688 426.688h42.688v42.688h-42.688z" fill="#E50046" p-id="11775"></path><path d="M597.312 384H640v42.688h-42.688zM597.312 426.688H640v42.688h-42.688z" fill="#E50046" p-id="11776"></path><path d="M597.312 469.312H640V512h-42.688zM554.688 512h42.688v42.688h-42.688z" fill="#E50046" p-id="11777"></path><path d="M597.312 512H640v42.688h-42.688z" fill="#E50046" p-id="11778"></path><path d="M298.688 554.688h42.688v42.688h-42.688z" p-id="11779"></path><path d="M384 554.688h42.688v42.688H384z" fill="#E50046" p-id="11780"></path><path d="M426.688 554.688h42.688v42.688h-42.688z" fill="#FFF100" p-id="11781"></path><path d="M298.688 597.312h42.688V640h-42.688z" p-id="11782"></path><path d="M426.688 597.312h42.688V640h-42.688z" fill="#E50046" p-id="11783"></path><path d="M512 554.688h42.688v42.688H512z" fill="#FFF100" p-id="11784"></path><path d="M512 597.312h42.688V640H512z" fill="#FFF100" p-id="11785"></path><path d="M256 640h42.688v42.688H256z" p-id="11786"></path><path d="M298.688 640h42.688v42.688h-42.688z" fill="#FFFFFF" p-id="11787"></path><path d="M341.312 640H384v42.688h-42.688z" p-id="11788"></path><path d="M384 640h42.688v42.688H384zM426.688 640h42.688v42.688h-42.688z" fill="#E50046" p-id="11789"></path><path d="M469.312 640H512v42.688h-42.688zM512 640h42.688v42.688H512zM597.312 554.688H640v42.688h-42.688z" fill="#E50046" p-id="11790"></path><path d="M597.312 597.312H640V640h-42.688zM554.688 640h42.688v42.688h-42.688z" fill="#FFF100" p-id="11791"></path><path d="M597.312 640H640v42.688h-42.688z" fill="#FFF100" p-id="11792"></path><path d="M213.312 682.688H256v42.688h-42.688z" p-id="11793"></path><path d="M256 682.688h42.688v42.688H256zM298.688 682.688h42.688v42.688h-42.688z" fill="#FFFFFF" p-id="11794"></path><path d="M341.312 682.688H384v42.688h-42.688z" fill="#E3E7E6" p-id="11795"></path><path d="M384 682.688h42.688v42.688H384zM426.688 682.688h42.688v42.688h-42.688z" p-id="11796"></path><path d="M469.312 682.688H512v42.688h-42.688z" p-id="11797"></path><path d="M512 682.688h42.688v42.688H512zM554.688 682.688h42.688v42.688h-42.688z" fill="#E50046" p-id="11798"></path><path d="M597.312 682.688H640v42.688h-42.688z" fill="#E50046" p-id="11799"></path><path d="M170.688 725.312h42.688V768h-42.688zM341.312 725.312H384V768h-42.688zM128 768h42.688v42.688H128zM512 725.312h42.688V768H512zM554.688 725.312h42.688V768h-42.688z" p-id="11800"></path><path d="M213.312 768H256v42.688h-42.688z" fill="#FFFFFF" p-id="11801"></path><path d="M256 768h42.688v42.688H256z" fill="#E3E7E6" p-id="11802"></path><path d="M298.688 768h42.688v42.688h-42.688z" p-id="11803"></path><path d="M170.688 810.688h42.688v42.688h-42.688z" fill="#FFFFFF" p-id="11804"></path><path d="M213.312 810.688H256v42.688h-42.688z" fill="#E3E7E6" p-id="11805"></path><path d="M256 810.688h42.688v42.688H256z" p-id="11806"></path><path d="M85.312 853.312H128V896h-42.688zM128 853.312h42.688V896H128z" fill="#FFFFFF" p-id="11807"></path><path d="M170.688 853.312h42.688V896h-42.688z" fill="#E3E7E6" p-id="11808"></path><path d="M213.312 853.312H256V896h-42.688z" p-id="11809"></path><path d="M42.688 896h42.688v42.688H42.688z" fill="#FFFFFF" p-id="11810"></path><path d="M85.312 896H128v42.688h-42.688z" fill="#FFFFFF" p-id="11811"></path><path d="M128 896h42.688v42.688H128z" fill="#E3E7E6" p-id="11812"></path><path d="M170.688 896h42.688v42.688h-42.688z" p-id="11813"></path><path d="M42.688 938.688h42.688v42.688H42.688z" fill="#E3E7E6" p-id="11814"></path><path d="M85.312 938.688H128v42.688h-42.688z" fill="#E3E7E6" p-id="11815"></path><path d="M128 938.688h42.688v42.688H128zM597.312 725.312H640V768h-42.688zM42.688 853.312h42.688V896H42.688zM341.312 128H384v42.688h-42.688z" p-id="11816"></path><path d="M384 128h42.688v42.688H384z" fill="#FFF100" p-id="11817"></path><path d="M426.688 128h42.688v42.688h-42.688z" fill="#E50046" p-id="11818"></path><path d="M469.312 128H512v42.688h-42.688z" fill="#E50046" p-id="11819"></path><path d="M256 341.312h42.688V384H256z" p-id="11820"></path><path d="M298.688 341.312h42.688V384h-42.688z" fill="#E50046" p-id="11821"></path><path d="M341.312 341.312H384V384h-42.688z" fill="#E50046" p-id="11822"></path><path d="M384 341.312h42.688V384H384zM426.688 341.312h42.688V384h-42.688z" fill="#FFF100" p-id="11823"></path><path d="M469.312 341.312H512V384h-42.688z" fill="#FFF100" p-id="11824"></path><path d="M512 0h42.688v42.688H512z" p-id="11825"></path><path d="M512 128h42.688v42.688H512zM512 341.312h42.688V384H512z" fill="#E50046" p-id="11826"></path><path d="M554.688 0h42.688v42.688h-42.688z" p-id="11827"></path><path d="M554.688 128h42.688v42.688h-42.688zM554.688 341.312h42.688V384h-42.688z" fill="#E50046" p-id="11828"></path><path d="M597.312 0H640v42.688h-42.688z" p-id="11829"></path><path d="M597.312 128H640v42.688h-42.688zM597.312 341.312H640V384h-42.688z" fill="#E50046" p-id="11830"></path><path d="M640 0h42.688v42.688H640z" p-id="11831"></path><path d="M640 128h42.688v42.688H640zM640 298.688h42.688v42.688H640z" fill="#E50046" p-id="11832"></path><path d="M640 341.312h42.688V384H640zM640 384h42.688v42.688H640z" fill="#E50046" p-id="11833"></path><path d="M640 426.688h42.688v42.688H640z" fill="#FFF100" p-id="11834"></path><path d="M640 469.312h42.688V512H640z" fill="#FFF100" p-id="11835"></path><path d="M640 512h42.688v42.688H640zM640 554.688h42.688v42.688H640z" fill="#E50046" p-id="11836"></path><path d="M640 597.312h42.688V640H640zM640 640h42.688v42.688H640z" fill="#FFF100" p-id="11837"></path><path d="M682.688 0h42.688v42.688h-42.688z" p-id="11838"></path><path d="M682.688 128h42.688v42.688h-42.688z" fill="#E50046" p-id="11839"></path><path d="M682.688 256h42.688v42.688h-42.688zM682.688 341.312h42.688V384h-42.688z" fill="#FFF100" p-id="11840"></path><path d="M725.312 0H768v42.688h-42.688z" p-id="11841"></path><path d="M725.312 128H768v42.688h-42.688z" fill="#FFF100" p-id="11842"></path><path d="M725.312 213.312H768V256h-42.688z" fill="#E50046" p-id="11843"></path><path d="M725.312 341.312H768V384h-42.688z" fill="#FFF100" p-id="11844"></path><path d="M853.312 85.312H896V128h-42.688z" p-id="11845"></path><path d="M853.312 128H896v42.688h-42.688z" fill="#E50046" p-id="11846"></path><path d="M896 128h42.688v42.688H896z" p-id="11847"></path><path d="M896 170.688h42.688v42.688H896z" fill="#E50046" p-id="11848"></path><path d="M938.624 170.688h42.688v42.688h-42.688z" p-id="11849"></path><path d="M938.624 213.312h42.688V256h-42.688zM981.312 256H1024v42.688h-42.688z" p-id="11850"></path><path d="M768 128h42.688v42.688H768zM768 170.688h42.688v42.688H768z" fill="#FFF100" p-id="11851"></path><path d="M768 341.312h42.688V384H768zM640 682.688h42.688v42.688H640z" fill="#E50046" p-id="11852"></path><path d="M640 725.312h42.688V768H640zM810.688 42.688h42.688v42.688h-42.688z" p-id="11853"></path><path d="M810.624 85.312h42.688V128h-42.688z" fill="#E50046" p-id="11854"></path><path d="M810.688 128h42.688v42.688h-42.688z" fill="#FFF100" p-id="11855"></path><path d="M810.688 341.312h42.688V384h-42.688z" fill="#E50046" p-id="11856"></path><path d="M853.312 170.688H896v42.688h-42.688zM853.312 341.312H896V384h-42.688zM896 213.312h42.688V256H896zM896 341.312h42.688V384H896z" fill="#FFF100" p-id="11857"></path><path d="M938.624 256h42.688v42.688h-42.688zM938.624 341.312h42.688V384h-42.688z" fill="#E50046" p-id="11858"></path><path d="M981.312 298.688H1024v42.688h-42.688z" p-id="11859"></path><path d="M981.312 341.312H1024V384h-42.688zM981.312 384H1024v42.688h-42.688zM981.312 426.688H1024v42.688h-42.688z" p-id="11860"></path><path d="M981.312 469.312H1024V512h-42.688zM0 896h42.688v42.688H0zM0 938.688h42.688v42.624H0zM42.688 981.312h42.688V1024H42.688z" p-id="11861"></path><path d="M85.312 981.312H128V1024h-42.688zM256 469.312h42.688V512H256z" p-id="11862"></path><path d="M341.312 469.312H384V512h-42.688z" fill="#E50046" p-id="11863"></path><path d="M469.312 469.312H512V512h-42.688z" fill="#FFF100" p-id="11864"></path><path d="M341.312 512H384v42.688h-42.688z" fill="#E50046" p-id="11865"></path><path d="M469.312 512H512v42.688h-42.688z" fill="#FFF100" p-id="11866"></path><path d="M512 512h42.688v42.688H512zM554.688 469.312h42.688V512h-42.688zM341.312 554.688H384v42.688h-42.688z" fill="#E50046" p-id="11867"></path><path d="M469.312 554.688H512v42.688h-42.688z" fill="#FFF100" p-id="11868"></path><path d="M341.312 597.312H384V640h-42.688zM384 597.312h42.688V640H384z" fill="#E50046" p-id="11869"></path><path d="M469.312 597.312H512V640h-42.688zM554.688 554.688h42.688v42.688h-42.688z" fill="#FFF100" p-id="11870"></path><path d="M554.688 597.312h42.688V640h-42.688z" fill="#FFF100" p-id="11871"></path><path d="M213.312 725.312H256V768h-42.688zM256 725.312h42.688V768H256z" fill="#FFFFFF" p-id="11872"></path><path d="M298.688 725.312h42.688V768h-42.688z" fill="#E3E7E6" p-id="11873"></path><path d="M170.688 768h42.688v42.688h-42.688z" fill="#FFFFFF" p-id="11874"></path><path d="M85.312 810.688H128v42.688h-42.688z" p-id="11875"></path><path d="M128 810.688h42.688v42.688H128z" fill="#FFFFFF" p-id="11876"></path></svg>